<svg width="24" height="24" viewBox="0 0 24 24" fill="none" xmlns="http://www.w3.org/2000/svg">
<g clip-path="url(#clip0_1_7683)">
<path fill-rule="evenodd" clip-rule="evenodd" d="M3.42861 0.856934C2.74663 0.856934 2.09256 1.12785 1.61033 1.61009C1.12809 2.09232 0.857178 2.74638 0.857178 3.42836V20.5712C0.857178 21.2532 1.12809 21.9073 1.61033 22.3896C2.09256 22.8718 2.74661 23.1426 3.42861 23.1426H20.5715C21.2534 23.1426 21.9076 22.8718 22.3898 22.3896C22.872 21.9073 23.1429 21.2532 23.1429 20.5712V3.42836C23.1429 2.74637 22.872 2.09232 22.3898 1.61009C21.9076 1.12785 21.2534 0.856934 20.5715 0.856934H3.42861Z" fill="#FFEE00"/>
<path d="M15.4286 15.4453V23.1424H11.5886V15.4453H10.4914C10.3527 15.4476 10.2149 15.4222 10.086 15.3707C9.95714 15.3191 9.83983 15.2424 9.74091 15.1451C9.64198 15.0478 9.56342 14.9317 9.50979 14.8037C9.45617 14.6757 9.42857 14.5383 9.42859 14.3996V13.0796C9.42857 12.9408 9.45617 12.8034 9.50979 12.6754C9.56342 12.5474 9.64198 12.4313 9.74091 12.334C9.83983 12.2367 9.95714 12.16 10.086 12.1085C10.2149 12.0569 10.3527 12.0316 10.4914 12.0338H11.5886C11.5886 10.3379 11.362 8.63814 12.6083 7.28236C13.9654 5.80602 15.829 5.99956 17.6572 5.99956C17.7967 6.00399 17.9342 6.03589 18.0614 6.09344C18.1886 6.15099 18.3033 6.23307 18.3988 6.33495C18.4944 6.43684 18.5688 6.55657 18.618 6.68728C18.6674 6.81798 18.6904 6.95711 18.6857 7.09671V8.36528C18.6881 8.50281 18.6619 8.63932 18.6088 8.76621C18.5556 8.89309 18.4768 9.00757 18.3772 9.10242C18.2844 9.20469 18.1702 9.28533 18.0429 9.33867C17.9155 9.39198 17.778 9.41667 17.64 9.41099H16.8C16.1486 9.41099 15.4972 9.41099 15.4972 10.851V12.0338H16.6457C16.7831 12.0338 16.919 12.0609 17.0459 12.1134C17.1727 12.166 17.2881 12.243 17.3851 12.3401C17.4823 12.4372 17.5593 12.5525 17.6119 12.6794C17.6644 12.8063 17.6914 12.9422 17.6914 13.0796V14.3996C17.6914 14.6769 17.5812 14.9429 17.3851 15.139C17.189 15.3351 16.9231 15.4453 16.6457 15.4453H15.4286Z" fill="#1F2233"/>
</g>
<defs>
<clipPath id="clip0_1_7683">
<rect width="24" height="24" fill="white"/>
</clipPath>
</defs>
</svg>
