<svg width="24" height="24" viewBox="0 0 24 24" fill="none" xmlns="http://www.w3.org/2000/svg">
<g clip-path="url(#clip0_1_7687)">
<path fill-rule="evenodd" clip-rule="evenodd" d="M6.1225 0.856934C3.21454 0.856934 0.857178 3.21428 0.857178 6.12224V17.8774C0.857178 20.7853 3.21456 23.1426 6.1225 23.1426H17.8776C20.7856 23.1426 23.1431 20.7853 23.1431 17.8774V6.12224C23.1431 3.21428 20.7856 0.856934 17.8776 0.856934H6.1225Z" fill="#FFEE00"/>
<path fill-rule="evenodd" clip-rule="evenodd" d="M17.9314 7.12465C17.2212 7.12465 16.6456 6.54901 16.6456 5.83894C16.6456 5.12885 17.2212 4.55322 17.9314 4.55322C18.6415 4.55322 19.2171 5.12885 19.2171 5.83894C19.2171 6.54901 18.6415 7.12465 17.9314 7.12465ZM11.9996 7.20061C9.34902 7.20061 7.20032 9.34931 7.20032 11.9999C7.20032 14.6505 9.34902 16.7992 11.9996 16.7992C14.6501 16.7992 16.7989 14.6505 16.7989 11.9999C16.7989 9.34931 14.6501 7.20061 11.9996 7.20061Z" fill="#1F2233"/>
</g>
<defs>
<clipPath id="clip0_1_7687">
<rect width="24" height="24" fill="white"/>
</clipPath>
</defs>
</svg>
