<svg width="24" height="25" viewBox="0 0 24 25" fill="none" xmlns="http://www.w3.org/2000/svg">
<path d="M20.9375 10.875C20.9375 16.6066 14.3041 21.7064 12.7358 22.8321C12.5206 22.9866 12.2649 23.0625 12 23.0625C11.7351 23.0625 11.4794 22.9866 11.2642 22.8321C9.69586 21.7064 3.0625 16.6066 3.0625 10.875C3.0625 5.93895 7.06395 1.9375 12 1.9375C16.9361 1.9375 20.9375 5.93895 20.9375 10.875Z" stroke="#FFEE00" stroke-width="1.25" stroke-linecap="round" stroke-linejoin="round"/>
<path d="M8.75 10.0625C8.75 10.9245 9.09241 11.7511 9.7019 12.3606C10.3114 12.9701 11.138 13.3125 12 13.3125C12.862 13.3125 13.6886 12.9701 14.2981 12.3606C14.9076 11.7511 15.25 10.9245 15.25 10.0625C15.25 9.20055 14.9076 8.3739 14.2981 7.7644C13.6886 7.15491 12.862 6.8125 12 6.8125C11.138 6.8125 10.3114 7.15491 9.7019 7.7644C9.09241 8.3739 8.75 9.20055 8.75 10.0625Z" stroke="#FFEE00" stroke-width="1.25" stroke-linecap="round" stroke-linejoin="round"/>
</svg>
