<svg width="22" height="22" viewBox="0 0 22 22" fill="none" xmlns="http://www.w3.org/2000/svg">
<g clip-path="url(#clip0_9_755)">
<path d="M11.0001 12.5714C13.1698 12.5714 14.9287 10.8125 14.9287 8.64286C14.9287 6.47317 13.1698 4.71429 11.0001 4.71429C8.83042 4.71429 7.07153 6.47317 7.07153 8.64286C7.07153 10.8125 8.83042 12.5714 11.0001 12.5714Z" stroke="#1A1A1A" stroke-width="1.25" stroke-linecap="round" stroke-linejoin="round"/>
<path d="M4.29004 18.7C4.99127 17.5489 5.97683 16.5976 7.15194 15.9376C8.32705 15.2774 9.65221 14.9307 11 14.9307C12.3479 14.9307 13.673 15.2774 14.8481 15.9376C16.0233 16.5976 17.0087 17.5489 17.7101 18.7" stroke="#1A1A1A" stroke-width="1.25" stroke-linecap="round" stroke-linejoin="round"/>
<path d="M11.0001 21.2143C16.6413 21.2143 21.2143 16.6413 21.2143 11C21.2143 5.35881 16.6413 0.785713 11.0001 0.785713C5.35886 0.785713 0.785767 5.35881 0.785767 11C0.785767 16.6413 5.35886 21.2143 11.0001 21.2143Z" stroke="#1A1A1A" stroke-width="1.25" stroke-linecap="round" stroke-linejoin="round"/>
</g>
<defs>
<clipPath id="clip0_9_755">
<rect width="22" height="22" fill="white"/>
</clipPath>
</defs>
</svg>
